<mxfile host="app.diagrams.net" modified="2022-03-19T08:13:26.295Z" agent="5.0 (Windows NT 10.0; Win64; x64) AppleWebKit/537.36 (KHTML, like Gecko) Chrome/99.0.4844.74 Safari/537.36" etag="NKA_KrxoYK98tmCODPs8" version="17.1.3" type="github">
  <diagram id="D_N1vMfkRav6s2W26J9r" name="第 1 页">
    <mxGraphModel dx="1209" dy="685" grid="1" gridSize="10" guides="1" tooltips="1" connect="1" arrows="1" fold="1" page="1" pageScale="1" pageWidth="827" pageHeight="1169" math="0" shadow="0">
      <root>
        <mxCell id="0" />
        <mxCell id="1" parent="0" />
        <mxCell id="TxIHwkJasvoyD6GsqWF5-1" value="log日志" style="rounded=0;whiteSpace=wrap;html=1;" vertex="1" parent="1">
          <mxGeometry x="40" y="200" width="120" height="60" as="geometry" />
        </mxCell>
        <mxCell id="TxIHwkJasvoyD6GsqWF5-2" value="" style="shape=flexArrow;endArrow=classic;html=1;rounded=0;" edge="1" parent="1">
          <mxGeometry width="50" height="50" relative="1" as="geometry">
            <mxPoint x="180" y="229.5" as="sourcePoint" />
            <mxPoint x="240" y="229.5" as="targetPoint" />
          </mxGeometry>
        </mxCell>
        <mxCell id="TxIHwkJasvoyD6GsqWF5-3" value="logparser解析日志为csv" style="rounded=0;whiteSpace=wrap;html=1;" vertex="1" parent="1">
          <mxGeometry x="260" y="200" width="120" height="60" as="geometry" />
        </mxCell>
        <mxCell id="TxIHwkJasvoyD6GsqWF5-4" value="" style="shape=flexArrow;endArrow=classic;html=1;rounded=0;" edge="1" parent="1">
          <mxGeometry width="50" height="50" relative="1" as="geometry">
            <mxPoint x="400" y="229.5" as="sourcePoint" />
            <mxPoint x="460" y="230" as="targetPoint" />
          </mxGeometry>
        </mxCell>
        <mxCell id="TxIHwkJasvoyD6GsqWF5-5" value="loglizer分析解析后的csv找出异常" style="rounded=0;whiteSpace=wrap;html=1;" vertex="1" parent="1">
          <mxGeometry x="480" y="200" width="120" height="60" as="geometry" />
        </mxCell>
      </root>
    </mxGraphModel>
  </diagram>
</mxfile>
